<svg width="9" height="10" viewBox="0 0 9 10" fill="none" xmlns="http://www.w3.org/2000/svg">
    <path fill-rule="evenodd" clip-rule="evenodd" d="M0.0527344 3.42105C0.0527344 2.98504 0.406194 2.63158 0.842208 2.63158H8.21063C8.64664 2.63158 9.0001 2.98504 9.0001 3.42105C9.0001 3.85707 8.64664 4.21053 8.21063 4.21053H0.842208C0.406194 4.21053 0.0527344 3.85707 0.0527344 3.42105Z" fill="#0072F5"/>
    <path fill-rule="evenodd" clip-rule="evenodd" d="M0.0527344 6.57895C0.0527344 6.14293 0.406194 5.78947 0.842208 5.78947H8.21063C8.64664 5.78947 9.0001 6.14293 9.0001 6.57895C9.0001 7.01496 8.64664 7.36842 8.21063 7.36842H0.842208C0.406194 7.36842 0.0527344 7.01496 0.0527344 6.57895Z" fill="#0072F5"/>
    <path fill-rule="evenodd" clip-rule="evenodd" d="M5.02081 0.231232C5.32912 -0.0770772 5.82898 -0.0770772 6.13729 0.231232L8.76887 2.86281C9.07718 3.17112 9.07718 3.67099 8.76887 3.9793C8.46056 4.2876 7.9607 4.2876 7.65239 3.9793L5.02081 1.34772C4.7125 1.03941 4.7125 0.53954 5.02081 0.231232Z" fill="#0072F5"/>
    <path fill-rule="evenodd" clip-rule="evenodd" d="M0.283966 6.02071C0.592275 5.7124 1.09214 5.7124 1.40045 6.02071L4.03203 8.65228C4.34034 8.96059 4.34034 9.46046 4.03203 9.76877C3.72372 10.0771 3.22385 10.0771 2.91554 9.76877L0.283966 7.13719C-0.0243428 6.82888 -0.0243428 6.32901 0.283966 6.02071Z" fill="#0072F5"/>
</svg>
