<svg  xmlns="http://www.w3.org/2000/svg" xmlns:xlink="http://www.w3.org/1999/xlink" width="58px" height="51px"><path fill-rule="evenodd"  fill="rgb(154, 139, 248)" d="M20.874,0.781 L46.781,0.781 C51.199,0.781 54.781,4.362 54.781,8.781 L54.781,26.156 C54.781,30.574 51.199,34.156 46.781,34.156 L20.874,34.156 C16.456,34.156 12.874,30.574 12.874,26.156 L12.874,8.781 C12.874,4.362 16.456,0.781 20.874,0.781 Z"/><path fill-rule="evenodd"  stroke="rgb(99, 65, 255)" stroke-width="5px" stroke-linecap="butt" stroke-linejoin="miter" fill="rgb(255, 255, 255)" d="M12.843,11.843 L38.312,11.843 C41.73,11.843 43.312,14.82 43.312,16.843 L43.312,35.812 C43.312,38.573 41.73,40.812 38.312,40.812 L12.843,40.812 C10.82,40.812 7.843,38.573 7.843,35.812 L7.843,16.843 C7.843,14.82 10.82,11.843 12.843,11.843 Z"/><path fill-rule="evenodd"  stroke="rgb(197, 189, 251)" stroke-width="1px" stroke-linecap="butt" stroke-linejoin="miter" fill="rgb(111, 89, 244)" d="M15.304,35.355 C15.702,35.358 16.80,35.182 16.332,34.874 L21.183,29.48 L24.962,32.175 C25.524,32.645 26.359,32.577 26.838,32.23 L37.336,19.845 C37.819,19.286 37.757,18.443 37.197,17.960 C36.912,17.715 36.538,17.601 36.165,17.645 L29.358,18.438 C28.617,18.524 28.87,19.191 28.174,19.929 C28.260,20.668 28.930,21.196 29.670,21.110 L33.65,20.709 L25.668,29.298 L21.871,26.144 C21.309,25.671 20.469,25.742 19.995,26.302 C19.992,26.305 19.989,26.309 19.986,26.313 L14.277,33.173 C13.803,33.733 13.875,34.571 14.437,35.44 C14.682,35.249 14.993,35.360 15.313,35.355 L15.304,35.355 Z"/></svg>